<svg width="245" height="47" viewBox="0 0 245 47" fill="none" xmlns="http://www.w3.org/2000/svg">
<path d="M22.8934 32.2203L26.3757 35.6225L42.146 19.8522L22.8934 0.679688L19.5312 4.16196L35.3015 19.9323L22.8934 32.2203Z" fill="url(#paint0_linear_6548_23608)"/>
<path d="M14.0897 23.2138L10.6875 26.616L26.4578 42.4663L45.6303 23.2138L42.148 19.8516L26.3777 35.6219L14.0897 23.2138Z" fill="url(#paint1_linear_6548_23608)"/>
<path d="M31.9781 23.3356L35.3803 19.8533L19.57 4.20312L0.4375 23.3356L3.91977 26.6978L19.6901 10.9275L31.9781 23.3356Z" fill="url(#paint2_linear_6548_23608)"/>
<path d="M23.0944 14.3719L19.6922 10.9297L3.92188 26.7L23.0944 45.8325L26.4966 42.4303L10.6863 26.6199L23.0944 14.3719Z" fill="url(#paint3_linear_6548_23608)"/>
<path d="M59.5963 33.8609V15.689L55.2734 11.4062H65.1599L70.9237 24.2146H71.1238L76.8876 11.4062H82.4512V33.8609H77.568V19.8518H77.2878L72.5647 30.4987H69.4027L64.6396 19.8518H64.3994V33.8609H59.5963Z" fill="#15496F"/>
<path d="M86.6953 33.8609V11.4062H92.0988V33.8609H86.6953Z" fill="#15496F"/>
<path d="M110.707 33.8609H96.2578V11.4062H101.661V29.378H110.667V33.8609H110.707Z" fill="#15496F"/>
<path d="M129.683 33.8609H114.633V11.4062H129.683V15.689H119.956V20.5722H129.082V24.5348H119.956V29.5781H129.683V33.8609Z" fill="#15496F"/>
<path d="M138.569 27.4576C138.609 27.8178 138.729 28.1781 138.929 28.4983C139.129 28.8185 139.409 29.0987 139.769 29.3788C140.13 29.619 140.53 29.8191 141.01 29.9792C141.491 30.1393 142.051 30.1794 142.651 30.1794C143.492 30.1794 144.172 30.0593 144.733 29.8592C145.293 29.619 145.693 29.3388 145.933 28.9386C146.214 28.5383 146.334 28.098 146.334 27.6177C146.334 26.8972 146.054 26.3769 145.493 26.0167C144.933 25.6564 144.092 25.3362 143.012 25.0961L139.849 24.4156C138.649 24.1755 137.608 23.7752 136.727 23.2548C135.847 22.7345 135.126 22.0541 134.646 21.1735C134.166 20.2929 133.886 19.2522 133.886 18.0114C133.886 16.5705 134.246 15.3297 135.006 14.289C135.767 13.2483 136.767 12.4478 138.088 11.8874C139.409 11.3271 140.93 11.0469 142.651 11.0469C144.533 11.0469 146.094 11.3671 147.374 11.9675C148.655 12.5679 149.616 13.4084 150.256 14.4091C150.897 15.4097 151.257 16.4904 151.297 17.6512H146.294C146.214 17.2109 146.054 16.7706 145.773 16.4104C145.493 16.0101 145.093 15.7299 144.573 15.4898C144.052 15.2496 143.412 15.1295 142.651 15.1295C141.571 15.1295 140.73 15.3697 140.17 15.85C139.609 16.3303 139.289 16.9307 139.289 17.6512C139.289 18.2516 139.569 18.7319 140.09 19.1322C140.61 19.4924 141.37 19.7726 142.291 19.9727L145.533 20.6531C146.694 20.8533 147.735 21.2135 148.655 21.7339C149.576 22.2142 150.336 22.8946 150.857 23.7752C151.417 24.6558 151.697 25.7765 151.697 27.1374C151.697 28.5783 151.337 29.8191 150.657 30.8998C149.936 31.9805 148.935 32.8611 147.535 33.4615C146.174 34.0619 144.493 34.3821 142.451 34.3821C140.89 34.3821 139.529 34.182 138.369 33.8218C137.248 33.4615 136.327 32.9412 135.607 32.3008C134.886 31.6603 134.326 30.9399 134.006 30.0993C133.645 29.2988 133.445 28.4182 133.445 27.5376H138.569V27.4576Z" fill="#15496F"/>
<path d="M160.022 33.8609V15.8091H153.898V11.4062H171.55V15.8091H165.426V33.8609H160.022Z" fill="#15496F"/>
<path d="M192.359 29.4189C191.559 30.9799 190.438 32.1407 188.957 32.9812C187.476 33.8218 185.675 34.222 183.553 34.222C181.432 34.222 179.631 33.8218 178.15 32.9812C176.669 32.1407 175.508 30.9399 174.708 29.4189C173.907 27.8579 173.547 26.0567 173.547 23.9753V21.3736C173.547 19.2522 173.947 17.411 174.708 15.85C175.508 14.289 176.629 13.0882 178.15 12.2877C179.631 11.4471 181.432 11.0469 183.553 11.0469C185.675 11.0469 187.476 11.4872 188.957 12.3277C190.438 13.1683 191.599 14.369 192.359 15.89C193.16 17.4511 193.52 19.2522 193.52 21.4136V24.0153C193.52 26.0567 193.12 27.8979 192.359 29.4189ZM187.436 18.0114C187.076 17.1308 186.515 16.4904 185.875 16.0501C185.194 15.6099 184.434 15.4097 183.553 15.4097C182.673 15.4097 181.872 15.6099 181.192 16.0501C180.511 16.4904 179.991 17.1308 179.631 18.0114C179.271 18.892 179.07 19.9727 179.07 21.2936V23.9753C179.07 25.2562 179.271 26.3369 179.631 27.2174C179.991 28.098 180.551 28.7384 181.192 29.1787C181.872 29.619 182.633 29.8191 183.553 29.8191C184.474 29.8191 185.235 29.579 185.875 29.1787C186.555 28.7384 187.076 28.098 187.436 27.2174C187.796 26.3369 187.996 25.2562 187.996 23.9753V21.2936C187.996 19.9727 187.836 18.892 187.436 18.0114Z" fill="#15496F"/>
<path d="M196.844 33.8609V11.4062H201.127L210.132 24.735H210.333V11.4062H215.376V33.8609H211.133L202.087 20.3721H201.887V33.8609H196.844Z" fill="#15496F"/>
<path d="M237.711 33.8609H218.898V11.4062H233.948V15.689H224.222V20.5722H233.348V24.5348H224.222V29.5781H233.588L237.711 33.8609Z" fill="#15496F"/>
<path d="M239.156 17.5703C238.675 17.2901 238.275 16.9299 237.995 16.4495C237.715 15.9692 237.555 15.4489 237.555 14.8485V14.4082C237.555 13.8478 237.715 13.3275 237.995 12.8872C238.275 12.4469 238.675 12.0467 239.156 11.8065C239.636 11.5263 240.196 11.4062 240.837 11.4062C241.477 11.4062 241.998 11.5263 242.518 11.8065C242.998 12.0867 243.398 12.4469 243.679 12.8872C243.959 13.3275 244.119 13.8478 244.119 14.4082V14.8485C244.119 15.4489 243.999 15.9692 243.719 16.4495C243.439 16.9299 243.038 17.2901 242.558 17.5703C242.078 17.8505 241.517 17.9705 240.877 17.9705C240.196 17.9705 239.636 17.8505 239.156 17.5703ZM242.198 17.09C242.598 16.8898 242.918 16.5696 243.158 16.1694C243.399 15.7691 243.519 15.3288 243.519 14.8485V14.4082C243.519 13.9679 243.399 13.5276 243.158 13.1674C242.918 12.8072 242.598 12.487 242.198 12.2868C241.797 12.0867 241.317 11.9666 240.797 11.9666C240.276 11.9666 239.836 12.0867 239.436 12.2868C239.036 12.487 238.715 12.8072 238.475 13.1674C238.235 13.5276 238.115 13.9679 238.115 14.4082V14.8485C238.115 15.3288 238.235 15.7691 238.475 16.1694C238.715 16.5696 239.036 16.8498 239.436 17.09C239.836 17.2901 240.316 17.4102 240.797 17.4102C241.357 17.4102 241.797 17.2901 242.198 17.09ZM239.676 16.2494V12.9673H241.117C241.397 12.9673 241.637 13.0473 241.837 13.2475C242.038 13.4476 242.118 13.6477 242.118 13.9279C242.118 14.1681 242.038 14.3682 241.918 14.5283C241.797 14.6884 241.637 14.8085 241.437 14.8485C241.557 15.0486 241.677 15.2888 241.797 15.4889C241.918 15.689 242.038 15.9292 242.198 16.1694H241.517L240.837 14.8885H240.196V16.1694H239.676V16.2494ZM240.276 14.5283H240.837C240.997 14.5283 241.157 14.4883 241.317 14.4082C241.477 14.3282 241.557 14.1681 241.557 13.9679C241.557 13.8078 241.477 13.6477 241.357 13.5677C241.237 13.4876 241.077 13.4076 240.917 13.4076H240.276V14.5283Z" fill="#15496F"/>
<defs>
<linearGradient id="paint0_linear_6548_23608" x1="32.864" y1="34.6939" x2="29.5698" y2="-2.2062" gradientUnits="userSpaceOnUse">
<stop stop-color="#2BB571"/>
<stop offset="0.56" stop-color="#00A04D"/>
<stop offset="1" stop-color="#026C3B"/>
</linearGradient>
<linearGradient id="paint1_linear_6548_23608" x1="17.0076" y1="33.8647" x2="46.2908" y2="24.6787" gradientUnits="userSpaceOnUse">
<stop stop-color="#6BCBE1"/>
<stop offset="1" stop-color="#1677A7"/>
</linearGradient>
<linearGradient id="paint2_linear_6548_23608" x1="-0.0187979" y1="16.5792" x2="30.285" y2="13.6733" gradientUnits="userSpaceOnUse">
<stop stop-color="#147999"/>
<stop offset="1" stop-color="#72C7E2"/>
</linearGradient>
<linearGradient id="paint3_linear_6548_23608" x1="16.29" y1="46.4529" x2="13.1479" y2="11.9063" gradientUnits="userSpaceOnUse">
<stop stop-color="#916226"/>
<stop offset="1" stop-color="#FCBE35"/>
</linearGradient>
</defs>
</svg>
